<mxfile host="app.diagrams.net" modified="2021-07-24T12:48:31.115Z" agent="5.0 (Windows NT 10.0; Win64; x64) AppleWebKit/537.36 (KHTML, like Gecko) Chrome/91.0.4472.77 Safari/537.36" etag="vRP4W7BRi6fc0KY2E8rN" version="14.9.1" type="github">
  <diagram id="TARhbKKzNUPNuAWM8Tc2" name="Page-1">
    <mxGraphModel dx="1883" dy="909" grid="0" gridSize="10" guides="1" tooltips="1" connect="1" arrows="1" fold="1" page="0" pageScale="1" pageWidth="827" pageHeight="1169" math="0" shadow="0">
      <root>
        <mxCell id="0" />
        <mxCell id="1" parent="0" />
        <mxCell id="ySi8nhV5aFlIS1IFcl0L-35" value="" style="group" vertex="1" connectable="0" parent="1">
          <mxGeometry x="-260" y="259.5" width="826" height="143" as="geometry" />
        </mxCell>
        <mxCell id="ySi8nhV5aFlIS1IFcl0L-13" value="" style="rounded=0;whiteSpace=wrap;html=1;dashed=1;verticalAlign=top;" vertex="1" parent="ySi8nhV5aFlIS1IFcl0L-35">
          <mxGeometry width="826" height="143" as="geometry" />
        </mxCell>
        <mxCell id="ySi8nhV5aFlIS1IFcl0L-18" value="" style="group" vertex="1" connectable="0" parent="ySi8nhV5aFlIS1IFcl0L-35">
          <mxGeometry x="42" y="27.5" width="232" height="88" as="geometry" />
        </mxCell>
        <mxCell id="ySi8nhV5aFlIS1IFcl0L-16" value="&lt;font style=&quot;font-size: 22px&quot;&gt;Server1&lt;/font&gt;" style="rounded=0;whiteSpace=wrap;html=1;verticalAlign=top;" vertex="1" parent="ySi8nhV5aFlIS1IFcl0L-18">
          <mxGeometry width="232" height="88" as="geometry" />
        </mxCell>
        <mxCell id="ySi8nhV5aFlIS1IFcl0L-17" value="FileBeat" style="rounded=0;whiteSpace=wrap;html=1;fillColor=#ffffff;" vertex="1" parent="ySi8nhV5aFlIS1IFcl0L-18">
          <mxGeometry x="44" y="47" width="148" height="26" as="geometry" />
        </mxCell>
        <mxCell id="ySi8nhV5aFlIS1IFcl0L-19" value="" style="group" vertex="1" connectable="0" parent="ySi8nhV5aFlIS1IFcl0L-35">
          <mxGeometry x="298" y="28.5" width="232" height="88" as="geometry" />
        </mxCell>
        <mxCell id="ySi8nhV5aFlIS1IFcl0L-20" value="&lt;font style=&quot;font-size: 22px&quot;&gt;Server1&lt;/font&gt;" style="rounded=0;whiteSpace=wrap;html=1;verticalAlign=top;" vertex="1" parent="ySi8nhV5aFlIS1IFcl0L-19">
          <mxGeometry width="232" height="88" as="geometry" />
        </mxCell>
        <mxCell id="ySi8nhV5aFlIS1IFcl0L-21" value="FileBeat" style="rounded=0;whiteSpace=wrap;html=1;fillColor=#ffffff;" vertex="1" parent="ySi8nhV5aFlIS1IFcl0L-19">
          <mxGeometry x="44" y="47" width="148" height="26" as="geometry" />
        </mxCell>
        <mxCell id="ySi8nhV5aFlIS1IFcl0L-22" value="" style="group" vertex="1" connectable="0" parent="ySi8nhV5aFlIS1IFcl0L-35">
          <mxGeometry x="560" y="28.5" width="232" height="88" as="geometry" />
        </mxCell>
        <mxCell id="ySi8nhV5aFlIS1IFcl0L-23" value="&lt;font style=&quot;font-size: 22px&quot;&gt;Server1&lt;/font&gt;" style="rounded=0;whiteSpace=wrap;html=1;verticalAlign=top;" vertex="1" parent="ySi8nhV5aFlIS1IFcl0L-22">
          <mxGeometry width="232" height="88" as="geometry" />
        </mxCell>
        <mxCell id="ySi8nhV5aFlIS1IFcl0L-24" value="FileBeat" style="rounded=0;whiteSpace=wrap;html=1;fillColor=#ffffff;" vertex="1" parent="ySi8nhV5aFlIS1IFcl0L-22">
          <mxGeometry x="44" y="47" width="148" height="26" as="geometry" />
        </mxCell>
        <mxCell id="ySi8nhV5aFlIS1IFcl0L-36" value="g" style="group;verticalAlign=middle;" vertex="1" connectable="0" parent="1">
          <mxGeometry x="-258" y="468" width="826" height="143" as="geometry" />
        </mxCell>
        <mxCell id="ySi8nhV5aFlIS1IFcl0L-37" value="" style="rounded=0;whiteSpace=wrap;html=1;dashed=1;verticalAlign=top;" vertex="1" parent="ySi8nhV5aFlIS1IFcl0L-36">
          <mxGeometry width="826" height="143" as="geometry" />
        </mxCell>
        <mxCell id="ySi8nhV5aFlIS1IFcl0L-41" value="" style="group;verticalAlign=middle;" vertex="1" connectable="0" parent="ySi8nhV5aFlIS1IFcl0L-36">
          <mxGeometry x="298" y="59" width="232" height="57.5" as="geometry" />
        </mxCell>
        <mxCell id="ySi8nhV5aFlIS1IFcl0L-42" value="&lt;span style=&quot;font-size: 22px&quot;&gt;Kafak&lt;/span&gt;" style="rounded=0;whiteSpace=wrap;html=1;verticalAlign=middle;" vertex="1" parent="ySi8nhV5aFlIS1IFcl0L-41">
          <mxGeometry width="232" height="57.5" as="geometry" />
        </mxCell>
        <mxCell id="ySi8nhV5aFlIS1IFcl0L-44" value="" style="group;verticalAlign=middle;" vertex="1" connectable="0" parent="ySi8nhV5aFlIS1IFcl0L-36">
          <mxGeometry x="560" y="72" width="232" height="44.5" as="geometry" />
        </mxCell>
        <mxCell id="ySi8nhV5aFlIS1IFcl0L-45" value="&lt;span style=&quot;font-size: 22px&quot;&gt;Kafak&lt;/span&gt;" style="rounded=0;whiteSpace=wrap;html=1;verticalAlign=middle;" vertex="1" parent="ySi8nhV5aFlIS1IFcl0L-44">
          <mxGeometry width="232" height="44.50000000000001" as="geometry" />
        </mxCell>
        <mxCell id="ySi8nhV5aFlIS1IFcl0L-39" value="&lt;font style=&quot;font-size: 22px&quot;&gt;Kafak&lt;/font&gt;" style="rounded=0;whiteSpace=wrap;html=1;verticalAlign=middle;" vertex="1" parent="ySi8nhV5aFlIS1IFcl0L-36">
          <mxGeometry x="42" y="57" width="232" height="58.5" as="geometry" />
        </mxCell>
        <mxCell id="ySi8nhV5aFlIS1IFcl0L-47" value="" style="shape=flexArrow;endArrow=classic;html=1;exitX=0.5;exitY=1;exitDx=0;exitDy=0;strokeWidth=1;" edge="1" parent="1" source="ySi8nhV5aFlIS1IFcl0L-13">
          <mxGeometry width="50" height="50" relative="1" as="geometry">
            <mxPoint x="98" y="458" as="sourcePoint" />
            <mxPoint x="154" y="468" as="targetPoint" />
          </mxGeometry>
        </mxCell>
        <mxCell id="ySi8nhV5aFlIS1IFcl0L-50" value="" style="shape=flexArrow;endArrow=classic;html=1;exitX=0.5;exitY=1;exitDx=0;exitDy=0;strokeWidth=1;" edge="1" parent="1">
          <mxGeometry width="50" height="50" relative="1" as="geometry">
            <mxPoint x="-112" y="402.5" as="sourcePoint" />
            <mxPoint x="-111" y="468" as="targetPoint" />
          </mxGeometry>
        </mxCell>
        <mxCell id="ySi8nhV5aFlIS1IFcl0L-51" value="" style="shape=flexArrow;endArrow=classic;html=1;exitX=0.5;exitY=1;exitDx=0;exitDy=0;strokeWidth=1;" edge="1" parent="1">
          <mxGeometry width="50" height="50" relative="1" as="geometry">
            <mxPoint x="427" y="402.5" as="sourcePoint" />
            <mxPoint x="428" y="467.9999999999999" as="targetPoint" />
          </mxGeometry>
        </mxCell>
        <mxCell id="ySi8nhV5aFlIS1IFcl0L-56" value="g" style="group;verticalAlign=middle;" vertex="1" connectable="0" parent="1">
          <mxGeometry x="-257" y="680" width="826" height="143" as="geometry" />
        </mxCell>
        <mxCell id="ySi8nhV5aFlIS1IFcl0L-57" value="" style="rounded=0;whiteSpace=wrap;html=1;dashed=1;verticalAlign=top;" vertex="1" parent="ySi8nhV5aFlIS1IFcl0L-56">
          <mxGeometry width="826" height="143" as="geometry" />
        </mxCell>
        <mxCell id="ySi8nhV5aFlIS1IFcl0L-62" value="&lt;font style=&quot;font-size: 22px&quot;&gt;Logstash&lt;/font&gt;" style="rounded=0;whiteSpace=wrap;html=1;verticalAlign=middle;fontStyle=0;container=0;" vertex="1" parent="ySi8nhV5aFlIS1IFcl0L-56">
          <mxGeometry x="42" y="62" width="232" height="53.5" as="geometry" />
        </mxCell>
        <mxCell id="ySi8nhV5aFlIS1IFcl0L-59" value="&lt;span style=&quot;font-size: 22px&quot;&gt;Logstash&lt;/span&gt;" style="rounded=0;whiteSpace=wrap;html=1;verticalAlign=middle;fontStyle=0;container=0;" vertex="1" parent="ySi8nhV5aFlIS1IFcl0L-56">
          <mxGeometry x="298" y="62" width="232" height="54.5" as="geometry" />
        </mxCell>
        <mxCell id="ySi8nhV5aFlIS1IFcl0L-61" value="&lt;span style=&quot;font-size: 22px&quot;&gt;Logstash&lt;/span&gt;" style="rounded=0;whiteSpace=wrap;html=1;verticalAlign=middle;fontStyle=0;container=0;" vertex="1" parent="ySi8nhV5aFlIS1IFcl0L-56">
          <mxGeometry x="560" y="62" width="232" height="54" as="geometry" />
        </mxCell>
        <mxCell id="ySi8nhV5aFlIS1IFcl0L-66" value="&lt;font style=&quot;font-size: 31px&quot;&gt;日志过滤&lt;/font&gt;" style="text;html=1;strokeColor=none;fillColor=none;align=center;verticalAlign=middle;whiteSpace=wrap;rounded=0;" vertex="1" parent="ySi8nhV5aFlIS1IFcl0L-56">
          <mxGeometry x="318" y="16" width="190" height="33" as="geometry" />
        </mxCell>
        <mxCell id="ySi8nhV5aFlIS1IFcl0L-63" value="" style="shape=flexArrow;endArrow=classic;html=1;exitX=0.5;exitY=1;exitDx=0;exitDy=0;strokeWidth=1;" edge="1" parent="1">
          <mxGeometry width="50" height="50" relative="1" as="geometry">
            <mxPoint x="152.99999999999977" y="611" as="sourcePoint" />
            <mxPoint x="154" y="676.5" as="targetPoint" />
          </mxGeometry>
        </mxCell>
        <mxCell id="ySi8nhV5aFlIS1IFcl0L-64" value="" style="shape=flexArrow;endArrow=classic;html=1;exitX=0.5;exitY=1;exitDx=0;exitDy=0;strokeWidth=1;" edge="1" parent="1">
          <mxGeometry width="50" height="50" relative="1" as="geometry">
            <mxPoint x="-112.00000000000023" y="611" as="sourcePoint" />
            <mxPoint x="-111" y="676.5" as="targetPoint" />
          </mxGeometry>
        </mxCell>
        <mxCell id="ySi8nhV5aFlIS1IFcl0L-65" value="" style="shape=flexArrow;endArrow=classic;html=1;exitX=0.5;exitY=1;exitDx=0;exitDy=0;strokeWidth=1;" edge="1" parent="1">
          <mxGeometry width="50" height="50" relative="1" as="geometry">
            <mxPoint x="427" y="611" as="sourcePoint" />
            <mxPoint x="428" y="676.5" as="targetPoint" />
          </mxGeometry>
        </mxCell>
      </root>
    </mxGraphModel>
  </diagram>
</mxfile>
